<?xml version="1.0" encoding="UTF-8"?>
<svg xmlns="http://www.w3.org/2000/svg" viewBox="0 0 120 120" role="img" aria-label="Cabo Verde islands inset">
  <g fill="#F3EAD9" stroke="#B8B0A3" stroke-width="1.35" stroke-linejoin="round" stroke-linecap="round">
    <ellipse cx="28" cy="34" rx="9" ry="4" transform="rotate(-24 28 34)" />
    <ellipse cx="34" cy="43" rx="6.5" ry="2.8" transform="rotate(-12 34 43)" />
    <ellipse cx="45" cy="47" rx="5.5" ry="1.8" transform="rotate(-18 45 47)" />
    <ellipse cx="63" cy="51" rx="7.2" ry="3.2" transform="rotate(-18 63 51)" />
    <ellipse cx="92" cy="46" rx="2.3" ry="8" transform="rotate(-8 92 46)" />
    <ellipse cx="95" cy="60" rx="7" ry="5" transform="rotate(-15 95 60)" />
    <ellipse cx="82" cy="82" rx="4.8" ry="3.8" transform="rotate(-8 82 82)" />
    <ellipse cx="63" cy="87" rx="8" ry="4.8" transform="rotate(-20 63 87)" />
    <ellipse cx="31" cy="88" rx="4.8" ry="4.4" />
    <ellipse cx="18" cy="92" rx="3.6" ry="2.2" transform="rotate(-18 18 92)" />
  </g>
</svg>
