<svg xmlns="http://www.w3.org/2000/svg" viewBox="0 0 24 24" color="#123C7C">
  <title>global</title>
  <g fill="none" stroke="currentColor" stroke-width="1.04" stroke-linecap="round" stroke-linejoin="round" vector-effect="non-scaling-stroke">
    <circle cx="12" cy="12" r="7.66"/>
    <path d="M4.58 12h14.84"/>
    <path d="M5.58 7.82C8.2 8.04 10.04 8.14 12 8.14C13.96 8.14 15.8 8.04 18.42 7.82"/>
    <path d="M5.58 16.18C8.2 15.96 10.04 15.86 12 15.86C13.96 15.86 15.8 15.96 18.42 16.18"/>
    <path d="M10.26 4.74C9.3 5.54 8.66 6.56 8.34 7.82V16.18C8.68 17.44 9.34 18.46 10.32 19.22"/>
    <path d="M13.74 4.74C14.7 5.54 15.34 6.56 15.66 7.82V16.18C15.32 17.44 14.66 18.46 13.68 19.22"/>
  </g>
</svg>
